<svg id="Ebene_1" data-name="Ebene 1" xmlns="http://www.w3.org/2000/svg" viewBox="0 0 754.03 233.63"><defs><style>.cls-1{fill:#1d1d1b;}</style></defs><title>Rhizom</title><path class="cls-1" d="M263.19,282a2.25,2.25,0,0,0-2.38,2.38V344a4.78,4.78,0,0,1-4.77,4.77H242.92a4.78,4.78,0,0,1-4.77-4.77V186.67a4.78,4.78,0,0,1,4.77-4.77h42.92A50.07,50.07,0,0,1,335.91,232c0,18.12-10.25,34.1-24.8,42.68-4.53,2.62-6.2,4.77-4.05,9.06l28.14,57.94c1.67,3.58.24,7.15-4.53,7.15H317.31c-3.81,0-5.48-1.91-6.92-4.77l-28.14-59.14a4.66,4.66,0,0,0-4.53-2.86H263.19Zm0-77.5a2.25,2.25,0,0,0-2.38,2.38V257a2.25,2.25,0,0,0,2.38,2.38h22.65a27.42,27.42,0,0,0,0-54.84H263.19Z" transform="translate(-238.15 -179.99)"/><path class="cls-1" d="M384.79,249.86a2.25,2.25,0,0,0,2.38,2.38h52.46a2.25,2.25,0,0,0,2.38-2.38V186.67a4.78,4.78,0,0,1,4.77-4.77h13.11a4.78,4.78,0,0,1,4.77,4.77V344a4.78,4.78,0,0,1-4.77,4.77H446.79A4.78,4.78,0,0,1,442,344V277.28a2.25,2.25,0,0,0-2.38-2.38H387.18a2.25,2.25,0,0,0-2.38,2.38V344a4.78,4.78,0,0,1-4.77,4.77H366.91a4.78,4.78,0,0,1-4.77-4.77V186.67a4.78,4.78,0,0,1,4.77-4.77H380a4.78,4.78,0,0,1,4.77,4.77v63.19Z" transform="translate(-238.15 -179.99)"/><path class="cls-1" d="M533.11,205a2.25,2.25,0,0,0-2.38-2.38H504.5a4.78,4.78,0,0,1-4.77-4.77V186.67a4.78,4.78,0,0,1,4.77-4.77h79.88a4.78,4.78,0,0,1,4.77,4.77v11.21a4.78,4.78,0,0,1-4.77,4.77H558.15a2.25,2.25,0,0,0-2.38,2.38V325.45a2.25,2.25,0,0,0,2.38,2.38h28.61a4.78,4.78,0,0,1,4.77,4.77V344a4.78,4.78,0,0,1-4.77,4.77H502.11a4.78,4.78,0,0,1-4.77-4.77V332.6a4.78,4.78,0,0,1,4.77-4.77h28.61a2.25,2.25,0,0,0,2.38-2.38V205Z" transform="translate(-238.15 -179.99)"/><path class="cls-1" d="M651.86,324.25c-0.72,1.19-.24,2.38,1.43,2.38h66.53a4.78,4.78,0,0,1,4.77,4.77V344a4.78,4.78,0,0,1-4.77,4.77h-88.7a4.78,4.78,0,0,1-4.77-4.77V326.16a7.21,7.21,0,0,1,1.19-3.81l70.1-116.12c0.72-1.19.24-2.38-1.43-2.38H633.5a4.78,4.78,0,0,1-4.77-4.77v-12.4a4.78,4.78,0,0,1,4.77-4.77h83.93a4.78,4.78,0,0,1,4.77,4.77v17.17a7.2,7.2,0,0,1-1.19,3.81Z" transform="translate(-238.15 -179.99)"/><path class="cls-1" d="M860.5,229.59c2.38,19.08,2.15,52.46,0,71.53-2.86,26.23-22.18,49.6-53.65,49.6-28.61,0-49.84-18.84-53.65-49.6-2.38-19.31-2.38-52.46,0-71.53,3.1-26,22.18-49.6,53.65-49.6C835.46,180,856.69,198.83,860.5,229.59Zm-84.65,0c-2.38,19.55-2.38,52,0,71.53,1.91,13.83,12.4,26.94,31,26.94,16,0,28.61-9.78,31-26.94,2.86-19.55,2.62-52,0-71.53-1.91-14.07-12.16-26.94-31-26.94C791.35,202.64,778,212.18,775.85,229.59Z" transform="translate(-238.15 -179.99)"/><path class="cls-1" d="M936.8,254.63a1.28,1.28,0,0,0,2.38,0L958,186c1-2.86,2.38-4.05,5-4.05h23.61a4.78,4.78,0,0,1,4.77,4.77V344a4.78,4.78,0,0,1-4.77,4.77H975.19a4.78,4.78,0,0,1-4.77-4.77V219.57a1.22,1.22,0,0,0-2.38-.48L949.2,285.15c-1,3.1-2.38,4.05-5,4.05H931.8c-2.62,0-4.05-1-5-4.05L908,219.1a1.22,1.22,0,0,0-2.38.48V344a4.78,4.78,0,0,1-4.77,4.77H889.35a4.78,4.78,0,0,1-4.77-4.77V186.67a4.78,4.78,0,0,1,4.77-4.77H913c2.62,0,4.05,1.19,5,4.05Z" transform="translate(-238.15 -179.99)"/><path class="cls-1" d="M246.05,392.29a0.2,0.2,0,0,0-.34-0.15l-5.48,6.09a0.45,0.45,0,0,1-.8-0.27v-3a2.65,2.65,0,0,1,.77-1.57l5.52-6.55a1.18,1.18,0,0,1,.77-0.34h2.37a0.77,0.77,0,0,1,.77.77v22.26a0.36,0.36,0,0,0,.38.38h4.6a0.77,0.77,0,0,1,.77.77v1.88a0.77,0.77,0,0,1-.77.77H240a0.77,0.77,0,0,1-.77-0.77v-1.88a0.77,0.77,0,0,1,.77-0.77h5.63a0.36,0.36,0,0,0,.38-0.38V392.29Z" transform="translate(-238.15 -179.99)"/><path class="cls-1" d="M272.18,405.66a15.89,15.89,0,0,0,.27-3.18c0-.34-0.34-0.5-0.69-0.23a7.48,7.48,0,0,1-4.37,1.57c-4.33,0-7.55-3.52-7.85-7.85a17.26,17.26,0,0,1,0-2,8,8,0,0,1,7.85-7.78c4.44,0,7.51,3.52,8,8a60.62,60.62,0,0,1,0,11.49c-0.5,4.41-3.45,8-7.89,8-4.1,0-7.78-3.22-7.78-7.32a0.77,0.77,0,0,1,.77-0.77h2a0.77,0.77,0,0,1,.77.77c0,2,2.11,3.87,4.25,3.87C270.11,410.18,271.6,408.38,272.18,405.66Zm-4.79-15.94c-2.49,0-4,1.88-4.29,4.21a9.33,9.33,0,0,0,0,2.07c0.31,2.34,1.8,4.29,4.29,4.29s4-1.57,4.29-4.29a9.31,9.31,0,0,0,0-2.07C271.37,391.6,269.88,389.72,267.39,389.72Z" transform="translate(-238.15 -179.99)"/><path class="cls-1" d="M293.9,401a0.77,0.77,0,0,1,.77.77v2.6a0.77,0.77,0,0,1-.77.77H283.44a0.77,0.77,0,0,1-.77-0.77v-2.6a0.77,0.77,0,0,1,.77-0.77H293.9Z" transform="translate(-238.15 -179.99)"/><path class="cls-1" d="M309.64,389.65a3.94,3.94,0,0,0-3.75,3.87v0.57a0.77,0.77,0,0,1-.77.77h-2a0.7,0.7,0,0,1-.77-0.77v-0.57a7.24,7.24,0,1,1,14.48,0,10.92,10.92,0,0,1-2.91,7.55l-7.2,8.24a0.37,0.37,0,0,0,.31.61h9.65a0.7,0.7,0,0,1,.77.77v1.88a0.7,0.7,0,0,1-.77.77H302.82a0.77,0.77,0,0,1-.77-0.77v-2.49a1.19,1.19,0,0,1,.34-1l8.66-10a8.34,8.34,0,0,0,2.37-5.63A3.72,3.72,0,0,0,309.64,389.65Z" transform="translate(-238.15 -179.99)"/><path class="cls-1" d="M330.82,386.2c4.6,0,7.62,3,8.24,8a60.62,60.62,0,0,1,0,11.49c-0.46,4.21-3.18,8-8.24,8-4.6,0-7.62-3-8.24-8a57.61,57.61,0,0,1,0-11.49C323.09,390,325.77,386.2,330.82,386.2Zm-4.79,8a52.38,52.38,0,0,0,0,11.49c0.31,2.26,1.72,4.52,4.79,4.52,2.6,0,4.37-1.72,4.79-4.52a48,48,0,0,0,0-11.49c-0.31-2.3-1.69-4.48-4.79-4.52A4.72,4.72,0,0,0,326,394.17Z" transform="translate(-238.15 -179.99)"/><path class="cls-1" d="M357.1,401a0.77,0.77,0,0,1,.77.77v2.6a0.77,0.77,0,0,1-.77.77H346.64a0.77,0.77,0,0,1-.77-0.77v-2.6a0.77,0.77,0,0,1,.77-0.77H357.1Z" transform="translate(-238.15 -179.99)"/><path class="cls-1" d="M372.85,389.65a3.94,3.94,0,0,0-3.75,3.87v0.57a0.77,0.77,0,0,1-.77.77h-2a0.7,0.7,0,0,1-.77-0.77v-0.57a7.24,7.24,0,1,1,14.48,0,10.92,10.92,0,0,1-2.91,7.55l-7.2,8.24a0.37,0.37,0,0,0,.31.61h9.65a0.7,0.7,0,0,1,.77.77v1.88a0.7,0.7,0,0,1-.77.77H366a0.77,0.77,0,0,1-.77-0.77v-2.49a1.19,1.19,0,0,1,.34-1l8.66-10a8.34,8.34,0,0,0,2.37-5.63A3.72,3.72,0,0,0,372.85,389.65Z" transform="translate(-238.15 -179.99)"/><path class="cls-1" d="M393.53,392.29a0.2,0.2,0,0,0-.34-0.15l-5.48,6.09a0.45,0.45,0,0,1-.8-0.27v-3a2.65,2.65,0,0,1,.77-1.57l5.52-6.55a1.18,1.18,0,0,1,.77-0.34h2.37a0.77,0.77,0,0,1,.77.77v22.26a0.36,0.36,0,0,0,.38.38h4.6a0.77,0.77,0,0,1,.77.77v1.88a0.77,0.77,0,0,1-.77.77H387.52a0.77,0.77,0,0,1-.77-0.77v-1.88a0.77,0.77,0,0,1,.77-0.77h5.63a0.36,0.36,0,0,0,.38-0.38V392.29Z" transform="translate(-238.15 -179.99)"/><path class="cls-1" d="M436,398.19a0.21,0.21,0,0,0,.38,0l3-11a0.78,0.78,0,0,1,.8-0.65H444a0.77,0.77,0,0,1,.77.77v25.28a0.77,0.77,0,0,1-.77.77h-1.84a0.77,0.77,0,0,1-.77-0.77v-20a0.2,0.2,0,0,0-.38-0.08l-3,10.61a0.74,0.74,0,0,1-.8.65h-2a0.74,0.74,0,0,1-.8-0.65l-3-10.61a0.2,0.2,0,0,0-.38.08v20a0.77,0.77,0,0,1-.77.77h-1.84a0.77,0.77,0,0,1-.77-0.77V387.27a0.77,0.77,0,0,1,.77-0.77h3.79a0.78,0.78,0,0,1,.8.65Z" transform="translate(-238.15 -179.99)"/><path class="cls-1" d="M451.64,412.75a0.77,0.77,0,0,1-.73.57h-2.11a0.66,0.66,0,0,1-.77-0.77l7.12-25.47a0.74,0.74,0,0,1,.73-0.57h2.68a0.74,0.74,0,0,1,.73.57l7.12,25.47a0.66,0.66,0,0,1-.77.77h-2.11a0.77,0.77,0,0,1-.73-0.57l-1.69-5.86a0.71,0.71,0,0,0-.73-0.54h-6.36a0.74,0.74,0,0,0-.73.54Zm2.91-10.38a0.29,0.29,0,0,0,.31.42h4.75a0.29,0.29,0,0,0,.31-0.42l-2.49-10.69c0-.15-0.08-0.23-0.15-0.23H457.2c-0.08,0-.11.08-0.15,0.23Z" transform="translate(-238.15 -179.99)"/><path class="cls-1" d="M476.46,390.22a0.36,0.36,0,0,0-.38-0.38h-4.21a0.77,0.77,0,0,1-.77-0.77v-1.8a0.77,0.77,0,0,1,.77-0.77H484.7a0.77,0.77,0,0,1,.77.77v1.8a0.77,0.77,0,0,1-.77.77h-4.21a0.36,0.36,0,0,0-.38.38v19.34a0.36,0.36,0,0,0,.38.38h4.6a0.77,0.77,0,0,1,.77.77v1.84a0.77,0.77,0,0,1-.77.77h-13.6a0.77,0.77,0,0,1-.77-0.77v-1.84a0.77,0.77,0,0,1,.77-0.77h4.6a0.36,0.36,0,0,0,.38-0.38V390.22Z" transform="translate(-238.15 -179.99)"/><path class="cls-1" d="M520.33,389.65a3.94,3.94,0,0,0-3.75,3.87v0.57a0.77,0.77,0,0,1-.77.77h-2a0.7,0.7,0,0,1-.77-0.77v-0.57a7.24,7.24,0,1,1,14.48,0,10.92,10.92,0,0,1-2.91,7.55l-7.2,8.24a0.37,0.37,0,0,0,.31.61h9.65a0.7,0.7,0,0,1,.77.77v1.88a0.7,0.7,0,0,1-.77.77H513.51a0.77,0.77,0,0,1-.77-0.77v-2.49a1.19,1.19,0,0,1,.34-1l8.66-10a8.34,8.34,0,0,0,2.37-5.63A3.72,3.72,0,0,0,520.33,389.65Z" transform="translate(-238.15 -179.99)"/><path class="cls-1" d="M541.51,386.2c4.6,0,7.62,3,8.24,8a60.62,60.62,0,0,1,0,11.49c-0.46,4.21-3.18,8-8.24,8-4.6,0-7.62-3-8.24-8a57.61,57.61,0,0,1,0-11.49C533.77,390,536.45,386.2,541.51,386.2Zm-4.79,8a52.38,52.38,0,0,0,0,11.49c0.31,2.26,1.72,4.52,4.79,4.52,2.6,0,4.37-1.72,4.79-4.52a48,48,0,0,0,0-11.49c-0.31-2.3-1.69-4.48-4.79-4.52A4.72,4.72,0,0,0,536.72,394.17Z" transform="translate(-238.15 -179.99)"/><path class="cls-1" d="M562.08,392.29a0.2,0.2,0,0,0-.34-0.15l-5.48,6.09a0.45,0.45,0,0,1-.8-0.27v-3a2.65,2.65,0,0,1,.77-1.57l5.52-6.55a1.18,1.18,0,0,1,.77-0.34h2.37a0.77,0.77,0,0,1,.77.77v22.26a0.36,0.36,0,0,0,.38.38h4.6a0.77,0.77,0,0,1,.77.77v1.88a0.77,0.77,0,0,1-.77.77H556.06a0.77,0.77,0,0,1-.77-0.77v-1.88a0.77,0.77,0,0,1,.77-0.77h5.63a0.36,0.36,0,0,0,.38-0.38V392.29Z" transform="translate(-238.15 -179.99)"/><path class="cls-1" d="M591.42,393.52a7.19,7.19,0,0,1-2.22,5.25,0.57,0.57,0,0,0,0,.92,7.9,7.9,0,0,1-5.52,13.94c-4.79,0-8.35-3.49-8.35-7.89a8,8,0,0,1,2.83-6.05,0.57,0.57,0,0,0,0-.92,7.38,7.38,0,0,1-2.18-5.25c0-4.1,3.26-7.32,7.78-7.32A7.39,7.39,0,0,1,591.42,393.52Zm-3,12.22a4.8,4.8,0,0,0-9.58,0c0,2.49,2,4.37,4.79,4.37S588.43,408.23,588.43,405.74Zm-0.5-12.22c0-2.22-1.72-3.87-4.29-3.87s-4.29,1.65-4.29,3.87A4.31,4.31,0,0,0,587.94,393.52Z" transform="translate(-238.15 -179.99)"/><path class="cls-1" d="M622.72,402.59a0.36,0.36,0,0,0-.38.38v9.58a0.77,0.77,0,0,1-.77.77h-2.11a0.77,0.77,0,0,1-.77-0.77V387.27a0.77,0.77,0,0,1,.77-0.77h6.89a8,8,0,0,1,4.06,14.9c-0.73.42-1,.77-0.65,1.46l4.52,9.31a0.74,0.74,0,0,1-.73,1.15h-2.15a1.13,1.13,0,0,1-1.11-.77l-4.52-9.5a0.75,0.75,0,0,0-.73-0.46h-2.34Zm0-12.45a0.36,0.36,0,0,0-.38.38v8a0.36,0.36,0,0,0,.38.38h3.64a4.41,4.41,0,1,0,0-8.81h-3.64Z" transform="translate(-238.15 -179.99)"/><path class="cls-1" d="M655.47,394.17a60.59,60.59,0,0,1,0,11.49,8.55,8.55,0,0,1-8.62,8c-4.6,0-8-3-8.62-8a57.61,57.61,0,0,1,0-11.49c0.5-4.18,3.56-8,8.62-8C651.45,386.2,654.86,389.23,655.47,394.17Zm-13.6,0a57.61,57.61,0,0,0,0,11.49,4.85,4.85,0,0,0,5,4.33,4.79,4.79,0,0,0,5-4.33,50.14,50.14,0,0,0,0-11.49A5,5,0,0,0,641.87,394.17Z" transform="translate(-238.15 -179.99)"/><path class="cls-1" d="M660.64,390.14a0.77,0.77,0,0,1-.77-0.77v-2.11a0.77,0.77,0,0,1,.77-0.77H675.2a0.77,0.77,0,0,1,.77.77v2.11a0.77,0.77,0,0,1-.77.77h-5.06a0.36,0.36,0,0,0-.38.38v22a0.77,0.77,0,0,1-.77.77h-2.11a0.77,0.77,0,0,1-.77-0.77v-22a0.36,0.36,0,0,0-.38-0.38h-5.09Z" transform="translate(-238.15 -179.99)"/><path class="cls-1" d="M686.19,397.42a0.36,0.36,0,0,0,.38.38h9.08a0.77,0.77,0,0,1,.77.77v2.11a0.77,0.77,0,0,1-.77.77h-9.08a0.36,0.36,0,0,0-.38.38v7.47a0.36,0.36,0,0,0,.38.38h9.58a0.77,0.77,0,0,1,.77.77v2.11a0.77,0.77,0,0,1-.77.77H683.32a0.77,0.77,0,0,1-.77-0.77V387.27a0.77,0.77,0,0,1,.77-0.77h12.76a0.77,0.77,0,0,1,.77.77v2.11a0.77,0.77,0,0,1-.77.77h-9.5a0.36,0.36,0,0,0-.38.38v6.89Z" transform="translate(-238.15 -179.99)"/><path class="cls-1" d="M728.37,412.55a0.77,0.77,0,0,1-.77.77h-2.11a0.77,0.77,0,0,1-.77-0.77V387.27a0.77,0.77,0,0,1,.77-0.77h12.76a0.77,0.77,0,0,1,.77.77v2.11a0.77,0.77,0,0,1-.77.77h-9.5a0.36,0.36,0,0,0-.38.38v6.89a0.36,0.36,0,0,0,.38.38h9.08a0.77,0.77,0,0,1,.77.77v2.11a0.77,0.77,0,0,1-.77.77h-9.08a0.36,0.36,0,0,0-.38.38v10.73Z" transform="translate(-238.15 -179.99)"/><path class="cls-1" d="M746.6,412.75a0.77,0.77,0,0,1-.73.57h-2.11a0.66,0.66,0,0,1-.77-0.77l7.12-25.47a0.74,0.74,0,0,1,.73-0.57h2.68a0.74,0.74,0,0,1,.73.57l7.12,25.47a0.66,0.66,0,0,1-.77.77h-2.11a0.77,0.77,0,0,1-.73-0.57l-1.69-5.86a0.71,0.71,0,0,0-.73-0.54H749a0.74,0.74,0,0,0-.73.54Zm2.91-10.38a0.29,0.29,0,0,0,.31.42h4.75a0.29,0.29,0,0,0,.31-0.42l-2.49-10.69c0-.15-0.08-0.23-0.15-0.23h-0.08c-0.08,0-.11.08-0.15,0.23Z" transform="translate(-238.15 -179.99)"/><path class="cls-1" d="M778.85,399.64a8,8,0,0,1,2.72,5.86,7.87,7.87,0,0,1-8,7.81h-7.09a0.77,0.77,0,0,1-.77-0.77V387.27a0.77,0.77,0,0,1,.77-0.77h7.09a7.16,7.16,0,0,1,5.32,12.3A0.5,0.5,0,0,0,778.85,399.64Zm-9.16-9.5a0.36,0.36,0,0,0-.38.38v6.63a0.36,0.36,0,0,0,.38.38h3.83a3.69,3.69,0,0,0,3.87-3.91c0-2.26-1.88-3.49-3.87-3.49H769.7Zm3.83,19.54a4.36,4.36,0,0,0,4.4-4.18,4.41,4.41,0,0,0-4.4-4.52H769.7a0.36,0.36,0,0,0-.38.38v7.93a0.36,0.36,0,0,0,.38.38h3.83Z" transform="translate(-238.15 -179.99)"/><path class="cls-1" d="M791.27,402.59a0.36,0.36,0,0,0-.38.38v9.58a0.77,0.77,0,0,1-.77.77H788a0.77,0.77,0,0,1-.77-0.77V387.27a0.77,0.77,0,0,1,.77-0.77h6.9a8,8,0,0,1,4.06,14.9c-0.73.42-1,.77-0.65,1.46l4.52,9.31a0.74,0.74,0,0,1-.73,1.15H800a1.13,1.13,0,0,1-1.11-.77l-4.52-9.5a0.75,0.75,0,0,0-.73-0.46h-2.34Zm0-12.45a0.36,0.36,0,0,0-.38.38v8a0.36,0.36,0,0,0,.38.38h3.64a4.41,4.41,0,0,0,0-8.81h-3.64Z" transform="translate(-238.15 -179.99)"/><path class="cls-1" d="M813.56,390.22a0.36,0.36,0,0,0-.38-0.38H809a0.77,0.77,0,0,1-.77-0.77v-1.8a0.77,0.77,0,0,1,.77-0.77h12.83a0.77,0.77,0,0,1,.77.77v1.8a0.77,0.77,0,0,1-.77.77h-4.21a0.36,0.36,0,0,0-.38.38v19.34a0.36,0.36,0,0,0,.38.38h4.6a0.77,0.77,0,0,1,.77.77v1.84a0.77,0.77,0,0,1-.77.77h-13.6a0.77,0.77,0,0,1-.77-0.77v-1.84a0.77,0.77,0,0,1,.77-0.77h4.6a0.36,0.36,0,0,0,.38-0.38V390.22Z" transform="translate(-238.15 -179.99)"/><path class="cls-1" d="M832.75,396.47a0.16,0.16,0,0,0,.31.08l7.43-9.65a0.87,0.87,0,0,1,.84-0.38h2.11a0.84,0.84,0,0,1,.65,1.38L835.36,399a0.63,0.63,0,0,0,0,.92l9.81,12a0.86,0.86,0,0,1-.69,1.42H842a0.91,0.91,0,0,1-.84-0.38l-8.12-10.15a0.16,0.16,0,0,0-.31.08v9.69a0.77,0.77,0,0,1-.77.77h-2.11a0.77,0.77,0,0,1-.77-0.77V387.27a0.77,0.77,0,0,1,.77-0.77H832a0.77,0.77,0,0,1,.77.77v9.19Z" transform="translate(-238.15 -179.99)"/><path class="cls-1" d="M874.77,409.37a0.24,0.24,0,0,0,.23.38h10.69a0.77,0.77,0,0,1,.77.77v2a0.77,0.77,0,0,1-.77.77H871.44a0.77,0.77,0,0,1-.77-0.77v-2.87a1.16,1.16,0,0,1,.19-0.61l11.26-18.66a0.24,0.24,0,0,0-.23-0.38H871.82a0.77,0.77,0,0,1-.77-0.77v-2a0.77,0.77,0,0,1,.77-0.77h13.48a0.77,0.77,0,0,1,.77.77V390a1.16,1.16,0,0,1-.19.61Z" transform="translate(-238.15 -179.99)"/><path class="cls-1" d="M894.69,405.66c0,3.06,2.49,4.33,5,4.33,2.91,0,5-1.88,5-4.33V387.27a0.77,0.77,0,0,1,.77-0.77h2.11a0.77,0.77,0,0,1,.77.77v18.39c0,4.6-4,8-8.62,8-4.94,0-8.62-3.37-8.62-8V387.27a0.77,0.77,0,0,1,.77-0.77h2.11a0.77,0.77,0,0,1,.77.77v18.39Zm3.6-21.68a0.61,0.61,0,0,1-.61.61h-2.6a0.61,0.61,0,0,1-.61-0.61v-2.64a0.63,0.63,0,0,1,.61-0.61h2.6a0.63,0.63,0,0,1,.61.61V384Zm6.55,0a0.61,0.61,0,0,1-.61.61h-2.6A0.61,0.61,0,0,1,901,384v-2.64a0.63,0.63,0,0,1,.61-0.61h2.6a0.63,0.63,0,0,1,.61.61V384Z" transform="translate(-238.15 -179.99)"/><path class="cls-1" d="M917.68,402.59a0.36,0.36,0,0,0-.38.38v9.58a0.77,0.77,0,0,1-.77.77h-2.11a0.77,0.77,0,0,1-.77-0.77V387.27a0.77,0.77,0,0,1,.77-0.77h6.9a8,8,0,0,1,4.06,14.9c-0.73.42-1,.77-0.65,1.46l4.52,9.31a0.74,0.74,0,0,1-.73,1.15h-2.15a1.13,1.13,0,0,1-1.11-.77l-4.52-9.5a0.75,0.75,0,0,0-.73-0.46h-2.34Zm0-12.45a0.36,0.36,0,0,0-.38.38v8a0.36,0.36,0,0,0,.38.38h3.64a4.41,4.41,0,0,0,0-8.81h-3.64Z" transform="translate(-238.15 -179.99)"/><path class="cls-1" d="M940,390.22a0.36,0.36,0,0,0-.38-0.38h-4.21a0.77,0.77,0,0,1-.77-0.77v-1.8a0.77,0.77,0,0,1,.77-0.77h12.83a0.77,0.77,0,0,1,.77.77v1.8a0.77,0.77,0,0,1-.77.77H944a0.36,0.36,0,0,0-.38.38v19.34a0.36,0.36,0,0,0,.38.38h4.6a0.77,0.77,0,0,1,.77.77v1.84a0.77,0.77,0,0,1-.77.77H935a0.77,0.77,0,0,1-.77-0.77v-1.84a0.77,0.77,0,0,1,.77-0.77h4.6a0.36,0.36,0,0,0,.38-0.38V390.22Z" transform="translate(-238.15 -179.99)"/><path class="cls-1" d="M968.16,405.66c0-.57,0-1.3.77-1.3H971a0.77,0.77,0,0,1,.77.77,8.25,8.25,0,0,1-8.62,8.5c-4.6,0-8-3-8.62-8a57.61,57.61,0,0,1,0-11.49c0.5-4.18,3.56-8,8.62-8s8.62,3.22,8.62,8.5a0.77,0.77,0,0,1-.77.77h-2.11a0.77,0.77,0,0,1-.77-0.77c0-2.53-1.49-4.83-5-4.86a4.78,4.78,0,0,0-5,4.33,57.61,57.61,0,0,0,0,11.49,4.83,4.83,0,0,0,5,4.33C965.75,410,968.16,408.46,968.16,405.66Z" transform="translate(-238.15 -179.99)"/><path class="cls-1" d="M979.35,397.42a0.36,0.36,0,0,0,.38.38h8.43a0.36,0.36,0,0,0,.38-0.38V387.27a0.77,0.77,0,0,1,.77-0.77h2.11a0.77,0.77,0,0,1,.77.77v25.28a0.77,0.77,0,0,1-.77.77h-2.11a0.77,0.77,0,0,1-.77-0.77V401.83a0.36,0.36,0,0,0-.38-0.38h-8.43a0.36,0.36,0,0,0-.38.38v10.73a0.77,0.77,0,0,1-.77.77h-2.11a0.77,0.77,0,0,1-.77-0.77V387.27a0.77,0.77,0,0,1,.77-0.77h2.11a0.77,0.77,0,0,1,.77.77v10.15Z" transform="translate(-238.15 -179.99)"/></svg>